<?xml version="1.0" standalone="no"?>
<!DOCTYPE svg PUBLIC "-//W3C//DTD SVG 20010904//EN"
 "http://www.w3.org/TR/2001/REC-SVG-20010904/DTD/svg10.dtd">
<svg version="1.0" xmlns="http://www.w3.org/2000/svg"
 width="700.000000pt" height="700.000000pt" viewBox="0 0 700.000000 700.000000"
 preserveAspectRatio="xMidYMid meet">
<metadata>
Created by potrace 1.11, written by Peter Selinger 2001-2013
</metadata>
<g transform="translate(0.000000,700.000000) scale(0.100000,-0.100000)"
fill="#000000" stroke="none">
<path d="M3397 6044 c-1 -1 -36 -4 -77 -8 -41 -3 -86 -8 -100 -11 -14 -3 -41
-8 -60 -11 -192 -32 -449 -152 -614 -286 -42 -34 -138 -135 -184 -193 -93
-118 -192 -316 -216 -436 -3 -13 -12 -60 -22 -104 -15 -73 -17 -208 -18 -1476
l-1 -1395 33 -67 c35 -71 79 -114 152 -149 65 -32 187 -31 252 1 82 40 147
118 168 203 7 28 12 239 13 593 l2 550 38 0 c33 1 37 -2 38 -25 0 -14 1 -362
2 -775 l2 -750 28 -57 c16 -32 48 -75 74 -97 158 -140 396 -87 487 108 21 46
21 52 23 814 0 423 4 771 8 775 4 4 21 7 38 7 l32 0 5 -1005 5 -1005 24 -47
c125 -252 481 -229 571 37 12 32 14 225 16 1020 1 539 2 985 3 990 1 9 40 12
72 6 3 -1 5 -184 5 -408 -1 -225 3 -430 7 -457 12 -70 41 -124 97 -176 165
-155 442 -75 501 145 8 27 11 423 11 1280 0 1074 -3 1253 -16 1335 -46 280
-152 487 -350 686 -248 247 -567 373 -984 387 -35 2 -64 2 -65 1z m-469 -1178
c17 -20 32 -44 33 -53 0 -10 2 -27 4 -38 7 -34 -30 -100 -67 -123 -100 -62
-228 20 -214 136 9 67 46 108 110 122 50 10 98 -6 134 -44z m1206 45 c10 -1
35 -18 56 -39 91 -91 42 -227 -87 -239 -39 -4 -55 0 -83 19 -77 51 -90 157
-27 218 31 30 78 49 107 44 8 -1 23 -3 34 -3z m-309 -663 c-21 -108 -105 -199
-214 -234 -106 -33 -283 -22 -364 24 -80 44 -137 122 -152 205 l-7 37 372 0
372 0 -7 -32z"/>
</g>
</svg>
