<svg xmlns="http://www.w3.org/2000/svg" viewBox="0 0 400 400">
  <style>
      path {
          fill: black;
      }
      @media (prefers-color-scheme: dark) {
          path {
              fill: white;
          }
      }
  </style>
  <rect width="100%" height="100%" fill="none" />
  <g transform="matrix(1.79208,1.30188,-1.30188,1.79208,1348.87,-1549.66)">
      <path d="M828.606,1188.99C843.319,1165.46 854.462,1140.15 861.857,1113.88C853.181,1141.06 849.229,1153.47 833.936,1182.19C830.483,1188.11 825.919,1196.02 822.269,1201.8C825.41,1196.99 827.581,1192.67 828.606,1188.99ZM828.606,1188.99C835.319,1165.17 792.008,1177.05 731.853,1215.57C671.706,1254.08 617.492,1304.63 610.78,1328.48C607.416,1340.4 616.601,1343.38 634.137,1338.54C612.808,1343.59 610.071,1344.23 593.657,1346.57C566.785,1349.2 562.665,1349.61 539.92,1349.2L517.438,1347.66C506.025,1346.55 501.222,1339.96 504.737,1327.42C515.879,1287.86 605.864,1203.96 705.696,1140.03C803.818,1077.21 874.94,1057.06 866.797,1093.93L861.857,1113.88C854.462,1140.15 843.319,1165.46 828.606,1188.99ZM871.409,983.364C867.122,949.645 779.904,977.525 662.974,1052.39C534.21,1134.85 418.179,1243.05 403.808,1294.07C400.364,1306.3 403.061,1314.13 410.934,1317.85L391.155,1307.59C363.209,1290.39 362.111,1289.73 347.899,1278.4C339.382,1271.03 328.033,1261.14 319.97,1253.27C315.182,1248.45 314.028,1240.79 317.011,1230.17C333.092,1173.11 462.834,1052.11 606.811,959.917C730.008,881.056 823.692,848.813 838.143,876.86C842.651,886.537 848.712,899.401 852.681,909.288C863.456,941.115 863.655,941.728 867.369,959.405L871.409,983.364ZM768.349,785.57C746.59,765.672 657.383,798.309 542.163,872.083C399.386,963.487 270.718,1083.48 254.788,1140.05C252.585,1147.85 252.641,1154.03 254.757,1158.66C250.096,1147.27 244.084,1131.97 240.179,1120.3C231.582,1088.03 231.423,1087.42 228.886,1069.57L226.85,1051.03C226.611,1047.93 227.049,1044.29 228.21,1040.15C242.215,990.438 355.248,885.026 480.688,804.717C574.983,744.333 649.446,715.315 674.656,725.757L691.659,733.422C720.385,748.831 721.507,749.429 736.395,759.847C746.152,767.331 759.067,777.482 768.349,785.57ZM566.586,701.074C542.505,699.942 491.042,721.773 427.73,762.285C332.925,823.006 247.472,902.683 236.887,940.258C236.831,940.435 236.799,940.583 236.751,940.75L238.031,936.077C245.643,912.225 250.66,896.486 265.946,867.771C276.913,848.982 278.059,847.028 287.45,833.784C304.589,810.141 344.385,775.53 387.624,747.84C411.235,732.726 431.938,722.181 447.254,716.925C464.082,711.796 468.066,710.579 485.69,706.808C510.185,702.738 515.281,701.889 540.167,700.708C548.096,700.777 558.681,700.686 566.586,701.074Z" style="fill-opacity:0.5;"/>
  </g>
</svg>
