<?xml version="1.0" encoding="UTF-8" standalone="no"?>
<!DOCTYPE svg PUBLIC "-//W3C//DTD SVG 1.1//EN" "http://www.w3.org/Graphics/SVG/1.1/DTD/svg11.dtd">
<svg width="100%" height="100%" viewBox="0 0 2000 2000" version="1.1" xmlns="http://www.w3.org/2000/svg" xmlns:xlink="http://www.w3.org/1999/xlink" xml:space="preserve" xmlns:serif="http://www.serif.com/" style="fill-rule:evenodd;clip-rule:evenodd;stroke-linejoin:round;stroke-miterlimit:2;">
    <rect x="0" y="0" width="2000" height="2000" style="fill:white;"/>
    <g transform="matrix(1.79208,1.30188,-1.30188,1.79208,1348.87,-1549.66)">
        <path d="M828.606,1188.99C843.319,1165.46 854.462,1140.15 861.857,1113.88C853.181,1141.06 849.229,1153.47 833.936,1182.19C830.483,1188.11 825.919,1196.02 822.269,1201.8C825.41,1196.99 827.581,1192.67 828.606,1188.99ZM828.606,1188.99C835.319,1165.17 792.008,1177.05 731.853,1215.57C671.706,1254.08 617.492,1304.63 610.78,1328.48C607.416,1340.4 616.601,1343.38 634.137,1338.54C612.808,1343.59 610.071,1344.23 593.657,1346.57C566.785,1349.2 562.665,1349.61 539.92,1349.2L517.438,1347.66C506.025,1346.55 501.222,1339.96 504.737,1327.42C515.879,1287.86 605.864,1203.96 705.696,1140.03C803.818,1077.21 874.94,1057.06 866.797,1093.93L861.857,1113.88C854.462,1140.15 843.319,1165.46 828.606,1188.99ZM871.409,983.364C867.122,949.645 779.904,977.525 662.974,1052.39C534.21,1134.85 418.179,1243.05 403.808,1294.07C400.364,1306.3 403.061,1314.13 410.934,1317.85L391.155,1307.59C363.209,1290.39 362.111,1289.73 347.899,1278.4C339.382,1271.03 328.033,1261.14 319.97,1253.27C315.182,1248.45 314.028,1240.79 317.011,1230.17C333.092,1173.11 462.834,1052.11 606.811,959.917C730.008,881.056 823.692,848.813 838.143,876.86C842.651,886.537 848.712,899.401 852.681,909.288C863.456,941.115 863.655,941.728 867.369,959.405L871.409,983.364ZM768.349,785.57C746.59,765.672 657.383,798.309 542.163,872.083C399.386,963.487 270.718,1083.48 254.788,1140.05C252.585,1147.85 252.641,1154.03 254.757,1158.66C250.096,1147.27 244.084,1131.97 240.179,1120.3C231.582,1088.03 231.423,1087.42 228.886,1069.57L226.85,1051.03C226.611,1047.93 227.049,1044.29 228.21,1040.15C242.215,990.438 355.248,885.026 480.688,804.717C574.983,744.333 649.446,715.315 674.656,725.757L691.659,733.422C720.385,748.831 721.507,749.429 736.395,759.847C746.152,767.331 759.067,777.482 768.349,785.57ZM566.586,701.074C542.505,699.942 491.042,721.773 427.73,762.285C332.925,823.006 247.472,902.683 236.887,940.258C236.831,940.435 236.799,940.583 236.751,940.75L238.031,936.077C245.643,912.225 250.66,896.486 265.946,867.771C276.913,848.982 278.059,847.028 287.45,833.784C304.589,810.141 344.385,775.53 387.624,747.84C411.235,732.726 431.938,722.181 447.254,716.925C464.082,711.796 468.066,710.579 485.69,706.808C510.185,702.738 515.281,701.889 540.167,700.708C548.096,700.777 558.681,700.686 566.586,701.074Z" style="fill-opacity:0.5;"/>
    </g>
    <g transform="matrix(1.79208,1.30188,-1.30188,1.79208,1348.87,-1549.66)">
        <path d="M675.807,726.276L674.656,725.757C675.052,725.92 675.435,726.093 675.807,726.276ZM226.986,1052.27C231.626,1084.68 316.427,1057.46 429.988,984.734C555.437,904.425 668.478,799.004 682.466,749.302C685.769,737.543 683.256,729.941 675.807,726.276L691.659,733.422C706.102,740.237 710.142,742.844 736.395,759.847C746.279,767.175 758.948,777.624 768.349,785.57C773.558,790.326 774.901,798.084 771.824,809.009C755.895,865.583 627.226,985.571 484.457,1076.98C361.315,1155.82 267.91,1187.67 254.757,1158.66C249.913,1147.35 244.274,1131.92 240.179,1120.3C234.866,1102.96 234.755,1102.33 228.886,1069.57L226.986,1052.27ZM226.986,1052.27C226.928,1051.86 226.883,1051.45 226.85,1051.03L226.986,1052.27ZM320.83,1254.08C343.304,1273.56 432.965,1240.62 548.629,1166.57C692.614,1074.37 822.372,953.376 838.437,896.317C840.694,888.32 840.6,882.009 838.366,877.309C843.064,886.818 848.523,899.659 852.681,909.288C858.493,923.635 860.021,929.796 867.369,959.405L871.409,983.364C871.838,986.778 871.417,990.818 870.097,995.512C855.726,1046.55 739.703,1154.73 610.931,1237.19C513.016,1299.88 435.921,1329.64 410.934,1317.85L391.155,1307.59C375.425,1298.69 374.907,1298.31 347.899,1278.4C339.529,1271.46 328.965,1261.68 320.83,1254.08ZM320.83,1254.08C320.532,1253.82 320.245,1253.55 319.97,1253.27C320.254,1253.54 320.54,1253.8 320.83,1254.08ZM838.366,877.309C838.291,877.159 838.217,877.009 838.143,876.86C838.219,877.008 838.294,877.158 838.366,877.309ZM519.368,1347.79C518.705,1347.76 518.062,1347.72 517.438,1347.66L519.368,1347.79ZM519.368,1347.79C544.799,1348.86 598.889,1325.87 665.344,1283.33C765.184,1219.39 855.169,1135.5 866.295,1095.92C866.316,1095.85 866.336,1095.78 866.356,1095.71L861.857,1113.88C853.03,1144.47 844.601,1161.11 833.936,1182.19C830.595,1188.17 825.815,1195.95 822.269,1201.8C805.026,1228.14 758.407,1269.34 707.541,1301.9C677.488,1321.13 651.641,1333.73 634.137,1338.54C618.216,1342.61 616.362,1342.91 593.657,1346.57C571.294,1349.18 567.715,1349.18 539.92,1349.2L519.368,1347.79ZM866.356,1095.71L866.797,1093.93C866.675,1094.5 866.529,1095.11 866.356,1095.71ZM566.586,701.074C578.595,701.642 583.796,707.909 580.272,720.403C569.695,757.964 484.242,837.663 389.413,898.383C295.006,958.822 226.89,977.687 236.751,940.75L238.031,936.077C247.385,904.475 254.366,890.647 265.946,867.771C273.334,854.625 275.514,851.245 284.556,838.013C281.939,842.095 280.102,845.771 279.235,848.926C273.223,870.271 311.992,859.613 365.849,825.135C419.697,790.65 468.241,745.401 474.262,724.042C477.284,713.291 468.901,710.693 452.972,715.14C465.307,711.353 469.792,710.355 485.69,706.808C505.93,702.746 519.552,701.939 540.167,700.708C548.088,700.539 558.665,700.919 566.586,701.074Z"/>
    </g>
</svg>
